<?xml version="1.0" encoding="UTF-8" standalone="no"?>
<!DOCTYPE svg PUBLIC "-//W3C//DTD SVG 1.1//EN" "http://www.w3.org/Graphics/SVG/1.1/DTD/svg11.dtd">
<svg width="100%" height="100%" viewBox="0 0 600 1300" version="1.1" xmlns="http://www.w3.org/2000/svg" xmlns:xlink="http://www.w3.org/1999/xlink" xml:space="preserve" xmlns:serif="http://www.serif.com/" style="fill-rule:evenodd;clip-rule:evenodd;stroke-linejoin:round;stroke-miterlimit:2;">
    <g id="FSilkS">
        <g id="Snoopy">
            <path id="path979" d="M259.595,1001.72C274.503,1000.82 287.865,999.118 294.041,997.33C306.95,993.594 310.093,992.077 314.823,987.304L319.425,982.659L336.23,982.452C352.468,982.252 354.528,982.103 363.511,980.482C369.554,979.391 378.851,975.289 382.649,972.038C388.495,967.034 391.984,957.256 390.68,949.535C389.395,941.931 388.897,940.134 387.83,939.248C387.255,938.771 386.948,937.956 387.147,937.436C387.585,936.294 379.078,925.513 372.727,919.162C367.885,914.321 361.094,909.561 357.876,908.753C356.821,908.488 355.149,907.411 354.161,906.359C353.172,905.307 351.837,904.446 351.193,904.446C350.548,904.446 348.201,903.585 345.977,902.533C342.01,900.656 325.036,896.152 324.385,896.803C324.203,896.985 322.735,896.797 321.123,896.388C315.625,894.986 314.224,894.854 301.168,894.508C293.982,894.318 285.927,894.484 283.268,894.872C280.61,895.263 277.224,895.336 275.746,895.034L273.057,894.485L272.445,888.341C272.109,884.962 271.129,880.344 270.268,878.078C267.932,871.933 268.161,871.001 273.061,866.7C276.292,863.863 279.265,859.819 284.543,851.078C288.461,844.592 291.666,838.652 291.666,837.88C291.666,837.108 292.417,834.754 293.335,832.649C295.842,826.901 296.466,824.614 297.221,818.392C298.114,811.027 299.201,809.226 302.356,809.874C303.663,810.142 305.088,810.788 305.524,811.31C305.959,811.831 309.166,812.908 312.65,813.703C327.928,817.189 334.324,818.134 342.564,818.122C349.067,818.11 351.196,818.367 351.513,819.194C351.742,819.79 350.982,822.379 349.824,824.946C348.542,827.788 347.562,831.628 347.319,834.761C346.972,839.249 347.188,840.41 349.006,843.821C351.174,847.888 357.936,853.304 362.079,854.29C363.203,854.557 364.58,855.138 365.14,855.579C365.7,856.021 369.821,856.417 374.298,856.46C381.982,856.534 382.597,856.418 385.256,854.397C386.805,853.219 388.83,850.814 389.757,849.052C390.684,847.289 392.202,844.402 393.13,842.635C394.412,840.197 395.127,839.568 396.1,840.025C396.804,840.356 400.004,840.762 403.209,840.927C408.47,841.198 409.53,840.987 414.092,838.74C417.743,836.942 419.806,835.291 421.527,832.79C422.837,830.886 423.92,828.858 423.934,828.284C423.946,827.709 424.482,826.547 425.121,825.701C425.761,824.856 426.284,823.575 426.284,822.854C426.284,821.04 428.191,819.502 434.328,816.368C444.128,811.363 447.446,805.241 447.634,791.812C447.658,790.188 448.409,789.17 450.634,787.754C458.407,782.805 461.9,777.026 462.278,768.494C462.529,762.822 461.48,758.491 458.33,752.19C455.814,747.156 453.114,744.2 448.604,741.54C445.201,739.534 445.189,739.512 445.671,735.87C446.941,726.259 447.301,725.025 449.819,721.666C451.621,719.262 452.049,719.08 454.815,719.548C456.48,719.829 461.595,720.327 466.182,720.654C480.714,721.691 501.11,717.849 509.827,712.433C511.569,711.35 514.776,709.558 516.954,708.45C525.938,703.879 530.161,700.981 537.617,694.271C547.092,685.744 553.951,678.673 556.883,674.407C566.628,660.234 570.405,654.183 570.405,652.745C570.405,652.086 571.063,650.098 571.867,648.327C573.879,643.896 578.033,632.319 578.989,628.478C582.527,614.266 584.937,596.609 583.771,593.441C583.411,592.462 582.935,589.612 582.713,587.106C581.12,569.091 578.925,559.402 574.692,551.702C573.205,548.997 571.986,546.279 571.983,545.662C571.98,545.045 570.187,542.224 567.998,539.393C565.809,536.562 563.173,532.97 562.14,531.411C560.151,528.41 555.127,523.121 550.577,519.237C542.2,512.087 532.979,507.404 520.121,503.769C518.814,503.399 515.251,502.331 512.202,501.395C508.412,500.232 504.652,499.705 500.312,499.731L493.965,499.769L488.948,494.637C486.189,491.814 483.488,489.505 482.946,489.505C482.404,489.505 481.328,488.805 480.554,487.951C478.823,486.037 470.399,482.035 463.502,479.85C460.671,478.953 458.016,477.908 457.603,477.527C457.189,477.146 455.942,476.823 454.831,476.809C453.72,476.795 452.12,476.261 451.275,475.622C450.429,474.982 449.004,474.46 448.107,474.461C446.626,474.462 435.672,470.275 427.311,466.511C425.48,465.687 423.361,464.066 422.603,462.909C421.291,460.906 421.292,460.756 422.633,459.776C423.594,459.073 426.091,458.829 430.508,459.004C434.065,459.146 439.826,458.954 443.31,458.579C446.795,458.204 453.921,457.515 459.148,457.049C468.349,456.228 474.077,455.224 477.361,453.855C478.232,453.492 481.439,452.445 484.488,451.528C494.574,448.495 499.192,445.319 501.605,439.756C502.891,436.792 502.966,435.836 502.162,432.63C500.787,427.14 496.437,421.86 489.964,417.825C486.878,415.901 483.671,414.099 482.837,413.82C482.003,413.542 479.809,412.639 477.962,411.815C474.458,410.251 462.239,406.895 455.274,405.583C439.14,402.544 433.853,401.773 426.022,401.316C421.683,401.064 421.702,401.083 418.291,392.949C416.934,389.711 413.901,383.363 411.552,378.843C409.202,374.322 407.28,369.946 407.28,369.117C407.28,368.289 406.616,367.257 405.805,366.822C404.994,366.388 403.854,364.861 403.272,363.429C401.783,359.766 392.606,344.408 389.382,340.185C387.902,338.246 386.691,336.285 386.691,335.828C386.691,335.371 385.031,333.503 383.001,331.678C380.972,329.852 376.628,325.584 373.348,322.193C370.069,318.802 366.117,315.271 364.567,314.346C363.016,313.421 360.856,311.875 359.768,310.911C356.464,307.984 349.556,303.414 348.435,303.414C347.855,303.414 345.98,302.355 344.269,301.061C342.558,299.766 340.555,298.697 339.818,298.685C339.081,298.674 337.185,297.901 335.606,296.969C334.026,296.037 332.135,295.217 331.403,295.148C329.435,294.961 323.171,293.091 321.444,292.175C320.619,291.737 317.055,290.908 313.526,290.333C303.439,288.689 302.031,287.802 302.642,283.471C302.683,283.173 302.342,280.893 301.882,278.405C299.848,267.401 287.388,255.114 278.261,255.111C277.203,255.11 275.153,254.682 273.705,254.158C270.012,252.823 257.663,254.464 250.834,257.198C242.663,260.469 235.881,267.777 234.398,274.907C233.503,279.211 233.399,286.67 234.209,288.534C234.91,290.151 231.29,292.663 226.337,293.998C224.595,294.468 222.551,295.175 221.794,295.57C221.038,295.965 219.917,296.288 219.302,296.288C218.688,296.288 215.743,297.501 212.759,298.984C209.774,300.467 206.798,301.897 206.144,302.16C205.491,302.424 203.887,303.343 202.581,304.203C201.274,305.063 199.316,306.153 198.229,306.624C197.142,307.096 195.117,308.349 193.729,309.408C192.34,310.467 190.646,311.333 189.964,311.333C189.281,311.333 188.723,311.858 188.723,312.501C188.723,313.143 187.675,314.21 186.395,314.872C185.115,315.534 182.531,317.913 180.654,320.159C178.777,322.405 175.905,325.743 174.271,327.577C172.638,329.411 171.302,331.171 171.302,331.489C171.302,332.088 170.253,333.526 164.933,340.222C163.21,342.392 161.799,344.653 161.799,345.247C161.799,345.841 161.135,347.273 160.322,348.429C158.409,351.152 151.505,364.511 151.505,365.491C151.505,365.905 150.939,366.869 150.247,367.634C149.555,368.398 148.685,370.208 148.313,371.656C147.941,373.103 146.877,376.425 145.947,379.038C143.674,385.428 142.002,391.779 142.002,394.023C142.002,395.036 141.493,397.31 140.869,399.078C140.245,400.845 139.518,406.115 139.252,410.788C138.986,415.462 138.529,419.673 138.236,420.146C137.942,420.62 137.64,426.994 137.564,434.31C137.446,445.789 137.235,447.825 136.028,449.158C135.259,450.007 134.296,450.703 133.888,450.703C133.124,450.703 132.471,451.168 123.858,457.849C121.064,460.016 118.497,461.789 118.153,461.789C117.808,461.789 116.695,462.591 115.678,463.571C112.495,466.639 105.621,472.309 103.374,473.72C102.19,474.463 99.307,477.16 96.968,479.714C94.629,482.268 90.847,486.317 88.563,488.713C78.773,498.98 73.768,504.92 72.648,507.602C71.989,509.178 70.781,511.185 69.963,512.062C67.825,514.353 65.618,520.675 64.708,527.118C64.14,531.137 65.566,533.938 69.709,536.939C72.448,538.923 73.379,539.173 76.749,538.83C81.321,538.364 91.582,533.807 94.691,530.862L96.872,528.796L96.419,545.378C95.958,562.24 96.522,570.427 98.675,578.138C99.335,580.502 99.699,582.894 99.485,583.453C99.271,584.012 99.634,585.548 100.291,586.867C100.949,588.185 101.729,590.361 102.023,591.701C102.317,593.042 103.057,595.094 103.666,596.263C104.276,597.431 104.777,598.874 104.78,599.469C104.78,600.064 106.032,602.249 107.556,604.326C109.08,606.403 110.328,608.678 110.328,609.381C110.328,610.085 110.652,610.661 111.049,610.661C111.445,610.661 112.546,612.265 113.495,614.224C114.444,616.184 115.552,617.788 115.958,617.788C116.364,617.788 117.099,618.672 117.592,619.752C118.084,620.833 119.056,621.906 119.752,622.137C120.448,622.368 123.324,624.691 126.142,627.299C128.96,629.907 131.721,632.042 132.279,632.042C132.836,632.042 133.292,632.36 133.292,632.75C133.292,634.33 146.489,639.878 153.089,641.072C159.111,642.161 160.57,642.164 166.946,641.097C170.866,640.441 174.786,639.912 175.657,639.921C177.34,639.94 178.03,639.652 189.037,634.356C195.653,631.172 197.331,629.942 204.727,622.853C208.413,619.321 209.897,619.658 215.101,625.208C221.004,631.504 225.123,640.705 225.141,647.635C225.152,651.31 224.258,652.44 222.766,650.642C222.091,649.829 220.283,649.468 216.936,649.48C212.371,649.494 211.856,649.694 208.25,652.85C205.285,655.444 204.352,656.832 204.132,658.971C203.976,660.493 203.465,663.697 202.997,666.093C202.529,668.488 202.153,671.339 202.161,672.428C202.185,675.262 199.555,679.178 196.077,681.498C190.46,685.243 189.119,686.231 184.134,690.302C181.393,692.541 176.774,695.76 173.87,697.456C170.967,699.152 167.506,701.608 166.179,702.915C164.852,704.221 161.899,706.7 159.616,708.423C157.332,710.145 155.464,711.838 155.464,712.184C155.464,712.53 155.116,712.813 154.691,712.813C153.706,712.813 149.701,716.537 134.036,732.016C127.094,738.876 121.414,744.762 121.414,745.096C121.414,745.43 119.81,747.536 117.85,749.777C115.891,752.017 114.287,754.1 114.287,754.404C114.287,754.709 112.862,756.661 111.12,758.742C109.377,760.823 107.952,762.76 107.952,763.048C107.952,763.335 106.527,765.716 104.784,768.339C103.042,770.962 101.617,773.589 101.617,774.179C101.617,774.768 100.728,776.306 99.642,777.597C98.555,778.889 96.418,783.638 94.892,788.15C93.367,792.663 91.531,798.093 90.813,800.217C90.095,802.341 89.384,805.192 89.232,806.552C88.796,810.455 88.05,815.971 87.665,818.132C87.471,819.221 87.328,822.316 87.346,825.009C87.382,830.331 87.111,830.735 83.231,831.129C77.45,831.715 73.294,832.712 69.25,834.482C66.909,835.507 64.414,836.371 63.707,836.403C62.999,836.439 61.35,837.115 60.044,837.914C58.737,838.713 54.817,840.851 51.333,842.666C43.381,846.807 41.48,847.953 30.744,855.079C17.607,863.799 18.257,863.104 17.964,868.738C17.72,873.421 17.796,873.646 19.872,874.422C21.061,874.866 23.459,875.906 25.201,876.734C29.538,878.794 43.335,882.46 48.166,882.835C50.343,883.004 52.853,883.502 53.743,883.942C56.561,885.335 79.369,884.113 83.8,882.331C84.671,881.981 86.453,881.26 87.759,880.73C89.945,879.842 93.381,878.156 98.474,875.47C101.413,873.919 103.265,874.808 106.368,879.259C107.893,881.445 109.942,884.139 110.922,885.245C112.871,887.446 113.098,889.715 111.947,895.499C111.531,897.589 111.016,901.326 110.804,903.804C110.144,911.515 107.851,914.481 100.825,916.713C92.454,919.372 81.315,925.318 77.459,929.186C76.479,930.17 74.208,932.373 72.413,934.083C70.619,935.793 69.15,937.509 69.15,937.897C69.15,938.285 68.292,939.737 67.242,941.123C59.756,951.012 57.271,965.405 61.525,974.24C62.79,976.869 65.437,980.341 68.787,983.764C72.506,987.565 88.307,993.322 100.825,995.437C108.878,996.798 130.388,998.605 140.419,998.763C145.427,998.842 152.376,999.218 155.86,999.598C159.345,999.978 171.104,1000.44 181.992,1000.63C192.88,1000.81 204.283,1001.19 207.332,1001.47C215.172,1002.18 249.215,1002.35 259.596,1001.72L259.595,1001.72ZM248.283,979.204C248.336,973.346 244.787,966.061 239.305,960.773C235.828,957.418 234.684,956.75 233.067,957.127C229.16,958.038 228.495,961.441 231.059,967.4C234.308,974.952 235.042,978.559 233.927,981.482L233.086,983.686L220.605,983.252C213.74,983.013 205.272,982.658 201.788,982.463C198.304,982.268 189.574,981.906 182.387,981.659C175.201,981.413 167.361,981.047 164.966,980.847C155.423,980.048 149.073,979.659 139.23,979.268C133.568,979.044 127.828,978.657 126.475,978.408C125.121,978.16 121.736,977.835 118.952,977.686C107.859,977.093 93.304,974.539 88.154,972.282C84.45,970.658 80.422,966.834 79.798,964.348C79.131,961.693 79.892,956.503 81.367,953.652C82.016,952.397 84.788,949.032 87.528,946.174C91.507,942.023 94.022,940.249 100.024,937.361C104.157,935.373 107.986,933.746 108.532,933.746C110.978,933.746 123.659,927.138 124.42,925.467C126.118,921.741 130.17,903.26 130.592,897.32C130.669,896.231 130.962,892.225 131.243,888.417C131.828,880.499 131.376,879.171 125.95,872.84C118.979,864.706 115.469,858.788 112.289,849.807C110.053,843.494 109.509,839.356 109.369,827.635C109.225,815.462 109.218,815.496 115.701,792.793C116.385,790.397 117.594,787.587 118.387,786.549C119.18,785.51 119.829,784.337 119.829,783.942C119.829,782.413 124.642,773.034 127.121,769.732C128.555,767.822 130.779,764.713 132.065,762.822C134.325,759.498 155.983,736.695 165.064,728.079C167.513,725.755 172.502,721.539 176.15,718.709C179.798,715.879 183.806,712.771 185.056,711.803C186.307,710.834 188.801,709.086 190.6,707.917C192.398,706.748 194.449,705.278 195.156,704.65C195.864,704.023 196.755,703.375 197.136,703.211C199.455,702.216 206.962,697.502 207.76,696.541C208.284,695.909 209.092,695.392 209.555,695.392C210.632,695.392 214.062,698.594 214.062,699.6C214.062,701.866 238.444,726.739 241.976,728.076C242.738,728.365 243.361,728.946 243.361,729.367C243.361,729.788 244.609,730.583 246.133,731.134C247.657,731.686 248.905,732.34 248.905,732.589C248.905,733.65 258.351,737.362 261.053,737.362C263.807,737.362 268.679,733.385 270.997,729.245C273.828,724.188 275.715,721.524 276.464,721.524C277.396,721.524 278.837,725.596 279.685,730.631C280.126,733.244 280.865,737.139 281.328,739.287C282.566,745.033 283.185,755.003 283.273,770.62C283.389,791.108 281.284,811.141 277.866,822.092C275.779,828.776 272.402,836.488 270.183,839.635C269.368,840.791 268.701,842.272 268.701,842.926C268.701,844.085 265.894,847.929 260.619,853.994C257.79,857.248 252.189,861.965 244.153,867.864C241.289,869.966 232.577,873.988 227.524,875.541C222.583,877.06 215.838,879.47 211.563,881.246C209.225,882.216 208.517,883.043 207.884,885.537C207.124,888.529 207.197,888.71 210.198,891.279C213.46,894.07 214.255,894.171 220.397,892.575C222.357,892.066 227.241,891.054 231.251,890.327C235.261,889.6 238.985,888.56 239.526,888.015C240.068,887.471 240.785,887.025 241.121,887.025C241.457,887.025 243.678,886.135 246.059,885.046C252.749,881.986 253.343,882.199 254.348,888.015C254.818,890.737 255.418,896.884 255.681,901.675C256.122,909.722 256.313,910.526 258.194,912.232C260.091,913.953 260.664,914.043 266.643,913.569C270.17,913.288 274.482,912.9 276.224,912.705C287.604,911.431 316.309,912.916 322.45,915.095C324.356,915.771 326.864,916.325 328.024,916.325C329.184,916.325 331.435,916.989 333.028,917.801C334.62,918.612 337.04,919.5 338.405,919.773C341.541,920.4 353.819,926.365 355.065,927.867C355.58,928.487 356.429,928.995 356.952,928.995C358.024,928.995 364.3,935.873 367.066,940.081C369.683,944.061 370.65,946.502 371.283,950.721C371.784,954.065 371.627,954.663 369.724,956.649C367.128,959.358 361.75,961.309 359.971,960.187C359.289,959.757 358.162,957.629 357.467,955.458C355.652,949.789 353.376,946.333 349.209,942.919C344.508,939.066 340.689,938.105 338.434,940.206C336.761,941.765 336.261,944.404 337.494,945.166C337.874,945.401 339.144,947.649 340.316,950.162C341.488,952.675 342.78,955.349 343.188,956.106C344.225,958.029 344.111,960.923 342.939,962.441C342.178,963.428 340.035,963.812 333.635,964.108C321.594,964.666 321.381,964.589 320.2,959.207C319.043,953.934 316.228,948.343 311.967,942.852C308.182,937.976 296.542,929.041 291.476,927.123C289.412,926.342 287.52,925.374 287.272,924.973C287.024,924.572 286.117,924.243 285.256,924.243C284.395,924.243 282.888,923.717 281.906,923.073C280.923,922.43 277.358,921.027 273.982,919.955C268.644,918.261 266.025,917.609 258.011,915.981C257.14,915.803 254.407,915.123 251.938,914.468C249.469,913.813 244.658,913.049 241.248,912.77C237.837,912.491 233.621,912.111 231.879,911.925C230.137,911.739 221.407,911.366 212.478,911.096C203.55,910.826 195.918,910.299 195.517,909.926C195.117,909.553 194.702,907.365 194.594,905.065C193.962,891.537 193.352,887.318 191.45,883.296C189.478,879.128 187.54,877.811 184.308,878.443C182.2,878.855 180.123,883.703 179.612,889.401C179.358,892.232 178.64,897.043 178.017,900.091C177.394,903.14 176.518,908.902 176.071,912.896C175.625,916.89 175.048,920.708 174.79,921.381C174.183,922.963 177.161,927.133 179.876,928.5C181.406,929.271 184.4,929.472 190.702,929.226C204.694,928.681 213.357,928.693 218.022,929.262C220.417,929.555 225.94,929.985 230.296,930.217C246.065,931.059 259.663,933.485 265.534,936.504C267.396,937.461 272.12,938.728 273.063,938.523C273.299,938.47 274.641,939.03 276.046,939.764C277.451,940.498 279.313,941.459 280.184,941.901C283.289,943.474 284.941,944.442 285.331,944.919C285.548,945.185 286.842,945.974 288.205,946.672C292.563,948.904 295.568,951.98 298.805,957.522C301.447,962.047 301.96,963.633 301.96,967.282C301.96,971.35 301.764,971.802 299.008,974.073C297.385,975.411 295.632,976.506 295.115,976.506C294.597,976.506 294.055,976.838 293.909,977.243C293.764,977.649 291.864,978.094 289.686,978.233L285.727,978.486L283.747,972.531C280.632,963.161 276.385,957.668 269.846,954.549C267.427,953.396 267.053,953.402 265.187,954.625C262.908,956.118 262.584,958.656 264.371,961.018C265.011,961.864 265.534,963.2 265.534,963.988C265.534,964.776 265.883,965.42 266.311,965.42C266.738,965.42 267.322,966.4 267.608,967.598C267.894,968.796 268.482,970.225 268.915,970.774C269.347,971.323 269.814,973.722 269.951,976.104C270.27,981.633 269.004,983.166 264.715,982.441C263.077,982.164 261.554,982.23 261.331,982.587C261.107,982.944 258.071,983.265 254.585,983.299L248.245,983.361L248.281,979.203L248.283,979.204ZM201.788,868.702C207.779,867.986 211.266,866.529 219.209,861.423C224.188,858.223 226.604,855.957 230.494,850.841C233.216,847.26 235.443,843.989 235.443,843.571C235.443,843.152 236.35,841.004 237.459,838.796C238.568,836.589 240.022,831.66 240.69,827.843C241.359,824.026 242.212,819.3 242.586,817.34C242.961,815.38 243.288,811.395 243.314,808.483C243.338,805.572 243.702,802.293 244.119,801.196C244.595,799.945 244.603,797.64 244.143,795.008C243.739,792.7 242.894,786.715 242.266,781.706C240.875,770.608 240.208,767.585 237.029,757.95C231.997,742.704 227.901,737.693 222.94,740.716C220.974,741.914 220.805,742.409 220.92,746.621C221.144,754.759 221.393,757.19 222.044,757.592C222.395,757.809 222.915,759.671 223.199,761.73C223.483,763.788 224.239,768.502 224.879,772.204C225.518,775.906 226.223,785.596 226.445,793.737C227.176,820.54 224.15,832.166 213.567,843.217C209.504,847.459 207.185,849.209 204.419,850.117C199.994,851.57 196.307,851.792 193.079,850.798C190.521,850.011 190.477,849.781 191.509,842.68C191.943,839.699 191.753,838.826 190.344,837.335C189.419,836.355 188.375,835.553 188.024,835.553C187.674,835.553 185.61,837.257 183.439,839.338C178.112,844.446 175.138,845.311 170.052,843.23C166.488,841.771 161.008,836.578 161.008,834.659C161.008,834.261 161.988,833.547 163.185,833.073C175.964,828.01 178.857,824.319 173.919,819.381C172.239,817.701 171.353,817.367 169.761,817.815C164.933,819.172 160.487,819.342 157.265,818.293C154.431,817.371 153.794,816.759 153.112,814.303C152.092,810.63 152.085,808.854 153.088,808.234C153.524,807.965 153.893,806.964 153.908,806.009C153.97,802.318 159.934,797.681 167.472,795.464C174.23,793.477 174.463,793.073 173.958,784.192C173.415,774.633 175.078,763.098 177.859,757.146C180.558,751.371 180.729,749.213 178.694,746.626C177.453,745.048 176.303,744.488 174.305,744.488C171.09,744.488 169.229,746.285 164.06,754.386C159.464,761.589 157.133,768.764 156.727,776.952C156.524,781.037 156.005,783.846 155.34,784.455C154.755,784.99 151.782,787.704 148.733,790.486C142.291,796.364 139.61,801.066 138.09,809.152C136.667,816.72 137.685,820.955 142.865,829.014C143.773,830.426 144.598,832.03 144.699,832.577C146.688,843.417 149.662,848.846 156.598,854.3C162.797,859.175 165.328,860.412 170.778,861.229C172.871,861.543 175.251,862.37 176.065,863.068C177.758,864.517 184.521,867.227 186.448,867.228C187.157,867.228 188.193,867.778 188.75,868.45C189.819,869.737 192.667,869.792 201.788,868.702L201.788,868.702ZM47.078,868.55C44.302,868.326 41.702,867.813 41.3,867.411C40.558,866.669 43.905,863.708 47.769,861.69C48.858,861.121 51.708,859.374 54.104,857.808C56.499,856.241 60.296,853.889 62.541,852.581C64.786,851.273 68.572,849.044 70.955,847.628C73.946,845.85 76.729,844.902 79.939,844.569C85.377,844.004 86.649,844.908 88.102,850.368C88.59,852.2 89.336,853.914 89.76,854.176C91.446,855.218 90.352,857.923 86.91,861.221C84.919,863.129 82.336,864.871 81.169,865.092C80.002,865.314 77.622,866.047 75.88,866.723C74.138,867.398 71.466,867.972 69.941,867.998C68.417,868.021 66.758,868.306 66.255,868.626C65.269,869.253 55.266,869.213 47.078,868.55L47.078,868.55ZM399.123,823.169C397.729,822.455 396.327,821.475 396.007,820.991C395.077,819.586 395.309,816.977 396.509,815.336C397.449,814.051 397.901,813.963 399.479,814.757C400.503,815.272 403.122,816.189 405.299,816.794C409.763,818.034 410.754,819.998 408.338,822.82C406.608,824.84 402.677,824.989 399.123,823.169L399.123,823.169ZM410.092,803.465C403.459,801.453 399.846,796.798 400.34,790.9C400.713,786.448 403.505,781.743 405.867,781.587C409.804,781.327 412.501,781.909 414.061,783.357C414.96,784.191 415.944,784.874 416.248,784.874C416.552,784.874 419.558,786.205 422.928,787.833C426.298,789.46 429.272,790.725 429.536,790.642C430.414,790.368 431.88,796.661 431.391,798.609C430.926,800.461 426.434,803.327 422.721,804.14C419.297,804.89 413.824,804.597 410.092,803.465ZM357.29,803.36C356.075,801.894 351.292,799.69 350.427,800.197C350.12,800.377 345.236,800.072 339.574,799.52C321.841,797.789 302.668,791.763 301.621,787.591C301.376,786.611 301.407,782.481 301.69,778.412C302.337,769.129 302.151,761.551 301.095,754.198C300.642,751.046 300.471,748.144 300.715,747.748C301.139,747.062 306.508,749.346 307.449,750.613C308.392,751.882 315.334,756.366 316.355,756.366C316.944,756.366 318.667,757.023 320.185,757.825C321.703,758.628 325.44,759.94 328.488,760.742C331.537,761.544 334.744,762.631 335.615,763.157C337.137,764.076 344.395,765.522 345.794,765.185C346.165,765.096 347.183,765.248 348.054,765.525C349.344,765.934 349.549,766.481 349.152,768.462C348.154,773.451 355.131,776.806 358.579,772.995C359.459,772.024 361.018,771.412 362.615,771.412C364.046,771.412 365.503,770.966 365.852,770.422C367.039,768.574 369.246,760.733 369.258,758.324C369.264,757.005 369.758,755.224 370.356,754.365C370.953,753.506 371.637,751.189 371.876,749.216C372.114,747.244 372.926,744.037 373.68,742.09C377.195,733.004 387.013,728.343 395.356,731.799C401.722,734.436 407.223,748.246 403.741,752.849C403.102,753.695 402.554,755.099 402.525,755.97C402.495,756.841 401.682,758.488 400.718,759.63C395.088,766.296 387.292,764.145 382.779,754.68C380.924,750.788 380.504,750.406 377.834,750.184C375.656,750.003 374.73,750.305 374.182,751.372C373.077,753.523 372.406,761.005 373.269,761.538C373.682,761.794 374.036,762.783 374.055,763.738C374.085,765.377 375.785,768.615 379.019,773.206C380.416,775.189 380.407,775.358 378.692,779.465C376.493,784.73 376.189,785.071 373.702,785.071C371.621,785.071 367.686,789.207 367.686,791.393C367.686,791.988 367.387,792.814 367.021,793.228C366.655,793.642 365.887,795.227 365.314,796.752C362.6,803.972 359.747,806.322 357.29,803.36L357.29,803.36ZM426.594,773.797C422.102,771.857 419.157,767.813 419.157,763.584C419.157,756.206 426.539,751.438 434.599,753.611C437.39,754.363 442.913,758.584 442.913,759.965C442.913,760.492 443.448,761.367 444.101,761.909C444.817,762.503 445.278,764.194 445.261,766.164C445.225,770.381 442.859,773.168 438.162,774.53C436.202,775.098 434.242,775.667 433.807,775.793C432.738,776.102 430.496,775.482 426.594,773.797ZM343.929,746.138C332.881,744.34 321.109,738.943 309.976,730.573C301.333,724.075 300.499,722.225 304.378,718.148C307.346,715.029 309.573,709.598 310.313,703.673C311.624,693.184 302.379,680.566 293.74,681.051C288.314,681.356 287.296,679.569 290.183,674.803C294.502,667.674 302.17,663.616 310.139,664.242C312.391,664.419 315.951,664.682 318.048,664.827C320.146,664.972 322.267,665.494 322.76,665.987C323.253,666.481 325.279,666.893 327.26,666.904C329.242,666.915 332.954,667.623 335.509,668.478C338.064,669.332 340.458,669.844 340.828,669.615C341.199,669.386 343.026,669.935 344.889,670.835C346.751,671.735 349.637,672.688 351.3,672.954C352.964,673.221 355.486,674.226 356.906,675.19C358.326,676.153 361.168,677.131 363.223,677.362C365.277,677.594 367.595,678.36 368.374,679.065C369.153,679.77 370.879,680.346 372.211,680.346C373.542,680.346 375.652,680.879 376.899,681.529C378.147,682.18 380.979,682.714 383.193,682.717C385.407,682.72 387.463,682.967 387.762,683.266C388.357,683.86 388.797,683.938 395.797,684.685C401.004,685.24 400.407,684.757 407.806,694.392C412.83,700.935 412.839,701.119 408.474,708.841C406.946,711.545 405.695,714.079 405.695,714.473C405.695,715.63 403.031,715.295 401.017,713.884C399.567,712.868 397.198,712.57 390.348,712.539C381.942,712.501 381.327,712.614 376.769,715.021C367.201,720.075 358.459,731.076 355.871,741.321C354.622,746.264 353.123,747.852 350.264,747.258C349.175,747.032 346.325,746.527 343.929,746.138L343.929,746.138ZM254.741,716.141C250.789,713.991 245.064,708.969 237.818,701.296C226.813,689.641 224.576,686.919 221.932,681.958C219.494,677.384 219.452,677.14 220.596,674.271C222.066,670.586 222.769,670.336 225.298,672.605C231.033,677.75 239.652,684.306 240.68,684.306C240.909,684.306 242.72,685.464 244.704,686.879C248.698,689.728 248.561,689.635 259.902,697.178L267.945,702.528L266.622,705.097C263.835,710.504 259.018,717.563 258.138,717.526C257.633,717.504 256.104,716.882 254.741,716.141ZM286.914,709.25C287.457,708.596 288.202,708.062 288.57,708.062C288.939,708.062 289.035,708.596 288.784,709.25C288.533,709.903 287.788,710.438 287.128,710.438C286.152,710.438 286.112,710.217 286.914,709.25ZM454.598,698.424C451.438,697.427 447.144,695.624 445.056,694.418C442.968,693.211 440.885,692.224 440.426,692.224C438.678,692.224 428.328,681.262 424.353,675.199C422.068,671.715 419.373,666.37 418.362,663.321C417.352,660.272 415.873,656.115 415.076,654.083C411.419,644.758 411.254,623.008 414.732,608.682C415.894,603.891 417.188,599.353 417.606,598.596C418.024,597.84 418.365,596.496 418.365,595.609C418.365,594.175 421.85,586.079 423.816,582.946C424.226,582.293 425.565,579.62 426.793,577.007C428.021,574.394 430.33,570.652 431.923,568.692C433.516,566.732 435.055,564.347 435.342,563.392C436.774,558.633 462.92,535.601 468.459,534.22C469.661,533.92 470.84,533.358 471.079,532.97C471.319,532.583 472.186,532.266 473.006,532.266C473.827,532.266 475.676,531.573 477.117,530.726C483.253,527.118 504.939,524.564 510.734,526.767C511.816,527.178 513.658,527.526 514.827,527.54C515.997,527.554 517.645,528.088 518.491,528.728C519.336,529.367 520.663,529.891 521.439,529.891C522.215,529.891 524.374,530.785 526.237,531.879C528.1,532.973 531.049,534.599 532.791,535.493C534.533,536.387 537.562,539.096 539.522,541.514C541.482,543.932 543.947,546.767 545,547.815C546.053,548.862 547.3,550.375 547.772,551.176C548.243,551.977 549.619,554.052 550.829,555.787C553.239,559.241 556.151,566.535 556.151,569.117C556.151,570.016 556.597,571.195 557.141,571.738C558.771,573.363 559.745,582.589 559.661,595.616C559.572,609.589 558.41,618.325 555.673,625.603C554.629,628.377 553.776,631.143 553.776,631.749C553.776,632.355 553.102,634.362 552.279,636.208C551.457,638.054 550.201,641.108 549.489,642.995C548.776,644.881 546.332,649.113 544.056,652.398C541.78,655.683 539.562,658.956 539.126,659.671C537.573,662.218 528.88,672.841 527.56,673.804C526.821,674.343 524.928,676.034 523.355,677.563C521.781,679.091 519.162,681.183 517.536,682.212C515.909,683.241 513.382,685.202 511.921,686.57C510.459,687.938 508.96,689.057 508.59,689.057C508.22,689.057 506.104,690.126 503.888,691.433C501.672,692.739 499.217,693.808 498.432,693.808C497.648,693.808 496.401,694.477 495.662,695.294C494.922,696.111 493.175,697.009 491.778,697.29C490.381,697.571 486.222,698.431 482.536,699.201C473.316,701.127 462.182,700.818 454.598,698.424L454.598,698.424ZM465.944,689.524C466.125,689.346 469.607,688.987 473.681,688.727C482.414,688.169 484.112,687.852 488.842,685.891C490.802,685.079 494.9,683.494 497.949,682.37C503.853,680.192 518.615,669.795 522.526,665.06C529.956,656.063 535.655,648.116 537.868,643.666C539.275,640.836 541.114,637.899 541.954,637.138C542.794,636.378 543.481,634.95 543.481,633.965C543.481,632.98 544.236,630.451 545.16,628.346C547.508,622.99 548.356,619.663 550.674,606.702C551.686,601.048 552.098,589.226 551.338,587.68C551.012,587.017 550.555,583.946 550.322,580.855C549.993,576.508 549.35,574.306 547.481,571.137C546.152,568.883 545.065,566.509 545.065,565.86C545.065,562.256 535.499,548.217 531.062,545.31C526.732,542.472 519.007,538.806 515.303,537.829C510.865,536.659 493.624,536.105 492.363,537.092C491.904,537.451 489.731,537.909 487.533,538.108C485.118,538.328 481.375,539.572 478.073,541.252C475.068,542.782 472.074,544.25 471.421,544.516C468.733,545.608 466.183,547.38 463.534,549.999C461.992,551.523 457.036,556.264 452.52,560.533C448.004,564.803 443.97,569.009 443.556,569.88C441.928,573.306 439.951,576.523 437.663,579.469C436.347,581.163 433.746,586.292 431.883,590.865C430.02,595.438 427.998,600.35 427.39,601.78C426.782,603.21 426.284,605.2 426.284,606.201C426.284,607.203 426.017,608.287 425.69,608.612C424.349,609.944 422.961,621.208 422.95,630.854C422.938,643.26 423.43,648.456 425.174,654.215C427.968,663.443 435.854,677.026 439.34,678.614C440.434,679.112 441.33,679.857 441.33,680.268C441.33,680.679 442.577,681.427 444.101,681.93C445.626,682.433 446.873,683.144 446.873,683.51C446.873,684.441 459.565,688.619 461.645,688.373C462.583,688.262 463.584,688.549 463.869,689.01C464.399,689.868 465.354,690.104 465.944,689.525L465.944,689.524ZM445.804,666.791C439.229,657.944 436.206,643.209 437.046,624.105C437.452,614.877 438.98,607.269 440.633,606.248C441.016,606.011 441.33,604.968 441.33,603.931C441.33,602.893 441.646,601.849 442.034,601.609C442.421,601.37 442.961,600.287 443.233,599.203C443.504,598.119 444.791,595.427 446.092,593.222C447.392,591.016 448.457,588.535 448.457,587.709C448.457,586.883 448.804,585.992 449.229,585.729C449.654,585.467 451.237,583.397 452.748,581.129C456.513,575.476 469.133,562.595 472.351,561.12C473.799,560.456 476.157,559.063 477.591,558.024C480.71,555.764 489.069,552.609 495.408,551.299C504.775,549.363 516.488,553.222 518.904,559.039C519.39,560.211 520.37,562.238 521.082,563.543C522.13,565.467 522.369,568.32 522.344,578.589C522.303,595.085 520.129,607.249 515.863,614.844C514.938,616.49 514.182,618.562 514.182,619.449C514.182,620.336 513.326,622.196 512.28,623.582C511.234,624.969 509.795,627.35 509.082,628.875C505.973,635.523 504.594,637.459 495.265,648.276C493.826,649.945 486.422,656.328 482.52,659.264C477.763,662.843 463.532,670.164 462.533,669.546C462.157,669.314 461.419,669.464 460.894,669.879C460.368,670.295 458.744,670.659 457.284,670.689C455.824,670.718 454.428,670.943 454.182,671.189C453.936,671.435 452.761,671.636 451.57,671.636C449.838,671.636 448.682,670.664 445.804,666.791L445.804,666.791ZM487.789,636.186C490.432,634.789 493.689,631.917 496.981,628.083C503.117,620.935 503.171,620.836 506.328,610.98C508.849,603.11 509.496,596.156 507.858,594.518C507.416,594.077 507.055,593.137 507.055,592.431C507.055,590.389 501.036,586.905 497.508,586.905C495.055,586.905 493.881,587.463 491.666,589.677C490.142,591.201 488.63,592.448 488.307,592.448C486.061,592.448 474.588,608.51 474.588,611.653C474.588,612.472 474.216,613.838 473.76,614.689C473.304,615.54 472.599,619.151 472.193,622.713C471.494,628.838 471.559,629.367 473.385,632.483C477.071,638.772 480.991,639.78 487.789,636.186ZM503.295,661.224C502.07,659.999 503.864,656.583 507.971,652.321C509.695,650.531 511.814,647.464 512.68,645.504C513.546,643.544 515.251,640.693 516.47,639.169C519.673,635.163 524.906,624.609 526.874,618.184C527.808,615.136 528.898,612.022 529.296,611.266C529.694,610.51 530.019,609.217 530.019,608.393C530.019,607.57 530.512,605.694 531.114,604.225C533.086,599.417 533.964,581.133 532.418,577.067C531.467,574.567 534.134,571.111 536.083,572.317C540.193,574.859 541.587,580.561 541.393,594.032C541.242,604.562 540.041,611.733 537.349,618.184C536.077,621.233 534.818,624.83 534.552,626.178C534.109,628.417 529.722,635.864 525.966,640.753C525.13,641.842 523.788,644.158 522.986,645.9C522.175,647.66 518.471,651.97 514.65,655.6C507.835,662.076 505.369,663.298 503.295,661.224ZM263.736,675.001C261.894,673.804 260.03,672.643 259.595,672.423C255.714,670.46 249.648,666.56 248.497,665.288C247.715,664.424 246.64,663.717 246.107,663.717C244.766,663.717 243.27,661.758 243.284,660.019C243.29,659.222 243.533,656.61 243.824,654.215C244.91,645.281 244.274,636.168 242.249,631.646C237.971,622.092 236.222,619.444 230.247,613.475C226.737,609.968 223.001,606.521 221.947,605.815L220.03,604.532L221.944,600.445C222.997,598.197 224.327,595.969 224.899,595.494C225.472,595.019 225.94,594.094 225.94,593.44C225.94,592.785 227.219,589.052 228.783,585.144C230.346,581.236 231.949,576.025 232.344,573.563C232.739,571.102 233.623,566.416 234.308,563.149C235.789,556.092 237.713,535.608 237.075,533.695C236.829,532.957 236.806,530.106 237.022,527.36C237.24,524.614 236.98,520.23 236.441,517.616C235.903,515.003 235.289,511.21 235.076,509.186C234.193,500.808 227.632,481.841 223.819,476.646C220.527,472.162 217.439,471.499 215.626,474.887C214.698,476.621 214.753,477.74 216.026,483.004C216.837,486.362 217.745,489.465 218.042,489.901C218.34,490.337 219.01,493.009 219.531,495.84C220.052,498.671 220.854,502.175 221.312,503.628C222.967,508.877 224.117,531.332 222.852,533.696C222.375,534.587 221.774,539.529 221.516,544.679C221.222,550.555 220.484,555.788 219.533,558.727C218.7,561.303 218.018,564.171 218.018,565.101C218.018,566.031 217.733,567.13 217.385,567.544C217.036,567.958 215.95,570.434 214.972,573.048C213.993,575.661 212.628,578.868 211.939,580.174C207.117,589.318 206.14,591.299 206.14,591.935C206.14,592.329 204.893,594.033 203.369,595.72C201.844,597.408 200.597,599.19 200.597,599.68C200.597,600.813 190.794,610.662 189.667,610.662C189.204,610.662 188.6,611.374 188.323,612.245C188.047,613.116 187.17,613.829 186.375,613.829C185.58,613.829 184.724,614.364 184.473,615.017C184.223,615.67 183.342,616.205 182.516,616.205C181.69,616.205 180.108,616.917 179,617.788C177.893,618.659 176.396,619.372 175.674,619.372C174.952,619.372 173.583,619.789 172.632,620.298C171.169,621.081 166.467,621.771 161.795,621.888C155.176,622.053 145.382,619.103 139.795,615.259C133.109,610.658 122.202,598.1 122.202,595.001C122.202,594.369 121.536,592.556 120.722,590.973C118.034,585.741 117.452,584.173 116.713,580.174C116.31,577.997 115.597,575.207 115.127,573.974C113.161,568.81 112.669,549.263 114.148,535.038C114.927,527.543 116.353,521.544 118.156,518.174C118.6,517.345 119.698,513.851 120.598,510.411C122.358,503.674 124.307,498.532 125.82,496.632C126.34,495.979 127.023,494.6 127.338,493.568C127.653,492.537 128.953,490.221 130.226,488.421C131.498,486.622 133.721,483.368 135.165,481.19C136.609,479.013 139.005,476.045 140.489,474.596C143.191,471.956 148.813,468.916 150.992,468.916C152.5,468.916 152.182,470.907 150.328,473.073C147.981,475.814 137.247,491.979 137.247,492.772C137.247,493.169 136.148,495.537 134.805,498.033C133.462,500.529 131.699,505.139 130.888,508.277C130.076,511.415 128.906,514.8 128.288,515.799C126.893,518.055 124.313,528.821 124.928,529.818C125.177,530.22 124.97,531.559 124.463,532.794C123.361,535.49 123.187,537.3 122.636,551.824C122.361,559.079 122.516,563.854 123.075,565.286C123.55,566.506 124.237,569.286 124.601,571.464C126.383,582.127 127.788,586.261 131.502,591.772C133.573,594.846 135.768,598.152 136.38,599.118C137.375,600.69 138.956,601.905 143.809,604.829C144.629,605.323 145.697,606.125 146.183,606.61C146.669,607.096 147.586,607.494 148.219,607.494C148.853,607.494 150.54,608.385 151.968,609.474C153.407,610.571 155.624,611.453 156.945,611.453C158.255,611.453 159.508,611.747 159.73,612.106C160.891,613.985 174.18,611.02 178.307,607.961C178.895,607.524 179.964,607.082 180.683,606.978C181.401,606.873 182.773,605.878 183.732,604.765C184.691,603.653 185.717,602.743 186.012,602.743C186.974,602.743 193.06,596.93 193.648,595.45C193.963,594.656 195.62,591.947 197.329,589.43C199.038,586.912 200.902,583.266 201.469,581.326C202.037,579.386 203.498,576.156 204.717,574.148C206.006,572.024 206.932,569.358 206.932,567.773C206.932,566.275 207.269,564.711 207.68,564.297C208.779,563.192 213.292,543.091 213.253,539.477C213.241,538.342 213.383,535.208 213.571,532.513C213.758,529.819 213.577,524.652 213.166,521.031C212.756,517.411 212.095,511.598 211.697,508.114C211.299,504.63 210.4,499.285 209.699,496.236C208.999,493.187 208.101,489.089 207.704,487.129C206.584,481.588 202.36,470.401 200.7,468.579C199.877,467.676 198.441,465.181 197.508,463.035C196.179,459.979 196.03,458.993 196.819,458.487C197.978,457.745 210.337,453.87 213.221,453.345C214.283,453.151 216.956,452.267 219.16,451.378C225.793,448.705 226.451,448.461 232.845,446.303C236.232,445.159 239.992,444.094 241.2,443.935C242.408,443.777 243.75,443.428 244.183,443.161C246.392,441.795 271.181,443.956 279.389,446.23C280.26,446.471 283.467,447.246 286.516,447.952C289.565,448.659 294.375,449.953 297.206,450.828C300.037,451.703 304.135,452.708 306.313,453.06C308.49,453.413 312.226,454.243 314.615,454.906C317.004,455.568 319.201,455.96 319.498,455.777C319.795,455.593 321.761,455.784 323.866,456.203C327.498,456.924 330.195,457.3 338.384,458.227C340.344,458.449 342.838,458.813 343.927,459.035C346.69,459.598 353.509,460.39 355.409,460.368C356.28,460.357 358.596,460.67 360.556,461.061C362.516,461.453 371.92,461.935 381.455,462.133L398.79,462.492L401.251,465.436C406.682,471.932 406.914,473.799 402.509,475.561C400.758,476.262 398.955,476.835 398.502,476.835C396.793,476.835 390.19,481.796 389.251,483.786C387.876,486.699 388.017,487.653 390.032,489.064C392.601,490.864 397.093,490.574 401.585,488.317C403.753,487.228 405.854,486.337 406.253,486.337C406.652,486.337 408.56,485.563 410.493,484.616C414.481,482.663 421.13,482.155 423.51,483.622C424.381,484.159 426.341,484.842 427.865,485.141C429.39,485.439 432.062,486.331 433.804,487.122C435.546,487.912 438.738,488.805 440.897,489.105C443.057,489.406 446.442,490.366 448.42,491.241C452.641,493.106 453.898,493.589 458.995,495.308C463.546,496.842 467.465,499.736 467.221,501.383C467.013,502.778 464.242,504.21 453.997,508.213C449.86,509.829 445.233,511.983 443.717,512.998C442.2,514.014 440.67,514.845 440.317,514.845C439.963,514.845 438.71,515.759 437.531,516.877C436.352,517.994 433.349,520.355 430.857,522.123C428.364,523.891 426.113,526.006 425.854,526.822C425.595,527.639 425.057,528.307 424.658,528.307C423.634,528.307 413.948,538.354 411.224,542.242C409.973,544.027 408.039,546.084 406.925,546.813C405.812,547.543 404.9,548.755 404.9,549.508C404.899,550.26 403.476,552.835 401.738,555.23C400,557.626 398.164,560.476 397.659,561.565C397.154,562.654 395.042,567.108 392.966,571.464C390.89,575.819 389.018,580.273 388.806,581.362C388.594,582.451 387.693,585.302 386.804,587.697C385.398,591.484 383.03,602.413 382.857,605.91C382.828,606.563 382.449,608.726 382.022,610.717C381.595,612.707 381.367,620.903 381.515,628.93C381.725,640.298 382.085,644.312 383.141,647.088C383.888,649.047 384.55,651.542 384.612,652.631C384.675,653.72 385.197,655.735 385.772,657.109C386.347,658.483 386.699,660.443 386.555,661.464C386.329,663.058 385.899,663.291 383.52,663.11C381.996,662.994 379.145,662.399 377.185,661.787C375.225,661.176 372.018,660.46 370.058,660.196C368.099,659.932 364.396,658.657 361.83,657.361C359.265,656.066 355.979,655.006 354.529,655.006C353.08,655.006 350.725,654.35 349.296,653.548C347.867,652.745 345.273,651.823 343.531,651.497C341.789,651.172 340.007,650.621 339.571,650.273C339.136,649.926 337.354,649.462 335.612,649.242C333.87,649.023 330.128,648.311 327.297,647.661C322.737,646.614 314.396,645.626 305.824,645.118C300.733,644.817 294.004,646.127 289.614,648.275C287.257,649.428 285.328,650.678 285.328,651.052C285.328,651.426 284.598,651.964 283.706,652.247C281.79,652.855 275.177,661.66 274.496,664.509C274.237,665.598 273.757,666.845 273.43,667.28C273.104,667.716 272.578,669.676 272.262,671.636C271.261,677.842 269.296,678.617 263.734,675.001L263.736,675.001ZM358.685,539.257C363.164,537.304 367.072,533.184 370.286,527.025C373.862,520.175 374.876,505.32 371.934,502.879C371.34,502.385 370.853,501.516 370.853,500.948C370.853,500.379 369.924,499.184 368.79,498.291C367.077,496.944 365.832,496.714 361.465,496.94C355.37,497.255 352.929,498.38 349.075,502.652C347.543,504.35 345.804,506.273 345.21,506.926C344.616,507.58 343.866,509.005 343.543,510.094C343.221,511.183 342.251,513.24 341.387,514.666C340.333,516.406 339.682,519.268 339.403,523.376C339.03,528.898 339.153,529.642 340.667,531.003C341.59,531.833 342.346,533.107 342.346,533.835C342.346,535.332 344.94,537.834 347.889,539.182C351.165,540.679 355.357,540.708 358.685,539.257L358.685,539.257ZM481.715,493.907C481.715,493.715 482.072,493.338 482.507,493.068C482.943,492.799 483.299,492.956 483.299,493.418C483.299,493.879 482.942,494.256 482.507,494.256C482.071,494.256 481.715,494.099 481.715,493.907ZM161.42,444.257C160.918,443.787 160.947,443.056 161.504,442.173C162.559,440.501 168.609,437.341 171.301,437.055C173.092,436.866 173.303,437.154 173.518,440.081C173.8,443.931 172.857,444.926 168.519,445.353C164.971,445.702 162.568,445.331 161.42,444.257ZM185.613,439.291C185.092,438.664 184.777,436.656 184.913,434.83C185.155,431.561 185.235,431.479 190.134,429.474L195.109,427.438L196.717,429.047C197.71,430.04 198.417,431.944 198.565,434.026C198.797,437.27 198.69,437.445 195.718,438.705C191.572,440.461 186.813,440.738 185.613,439.291L185.613,439.291ZM372.913,437.132C371.52,435.956 376.802,429.566 380.91,427.457C384.315,425.708 384.705,425.768 388.739,428.665C392.418,431.307 393.28,433.932 391.165,436.048C389.726,437.486 383.716,439.045 381.628,438.521C380.703,438.289 379.448,438.408 378.838,438.784C377.791,439.431 374.573,438.534 372.913,437.132L372.913,437.132ZM348.022,437.229C347.295,437.222 346.17,436.882 345.522,436.472C344.545,435.854 344.808,435.248 347.063,432.92C348.559,431.377 350.093,430.114 350.472,430.114C351.264,430.114 356.716,434.067 357.556,435.25C357.865,435.685 357.865,436.285 357.556,436.584C356.884,437.236 351.886,437.879 350.397,437.506C349.817,437.36 348.748,437.236 348.022,437.229ZM412.054,436.462C411.17,435.989 410.447,434.915 410.447,434.075C410.447,432.657 416.385,426.155 417.68,426.155C417.998,426.155 418.482,425.45 418.756,424.589C419.451,422.4 424.917,420.974 427.892,422.206C429.387,422.825 430.571,422.868 431.558,422.34C434.236,420.907 438.452,421.023 440.84,422.596C442.352,423.591 444.892,424.184 448.363,424.351C453.723,424.609 466.208,427.936 467.074,429.336C467.339,429.764 468.208,430.114 469.007,430.114C470.69,430.114 471.87,432.404 470.418,432.851C469.547,433.119 466.331,433.623 460.335,434.433C459.246,434.58 456.6,434.936 454.455,435.225C452.31,435.513 445.794,435.86 439.975,435.996C434.156,436.132 429.257,436.378 429.089,436.544C428.315,437.31 413.504,437.238 412.054,436.462L412.054,436.462ZM320.965,433.244C319.441,432.868 317.214,432.325 316.016,432.037C313.278,431.379 313.279,430.791 316.022,429.445C318.159,428.397 333.314,425.378 336.406,425.384C340.319,425.391 340.351,426.691 336.531,430.511C332.388,434.654 329.621,435.757 326.112,434.665C324.806,434.259 322.489,433.619 320.965,433.244L320.965,433.244ZM211.119,434.229C210.59,433.893 209.921,431.614 209.633,429.167C209.118,424.781 209.146,424.697 211.572,423.443C212.927,422.742 215.602,421.954 217.517,421.692C220.401,421.297 221.288,421.503 222.678,422.893C224.631,424.846 224.914,429.05 223.245,431.332C221.694,433.453 213.121,435.501 211.119,434.229L211.119,434.229ZM162.329,422.213C162.882,419.864 166.507,414.762 167.161,415.415C167.408,415.663 168.429,415.33 169.428,414.676C171.074,413.597 171.314,413.615 171.972,414.871C172.547,415.967 172.7,423.197 172.196,425.421C172.137,425.67 170.498,426.671 168.548,427.645C166.598,428.619 164.758,429.811 164.459,430.295C163.649,431.604 161.785,424.528 162.329,422.213L162.329,422.213ZM361.642,426.882C360.175,425.976 358.975,424.932 358.975,424.563C358.975,423.012 361.616,421.462 365.121,420.957C367.185,420.66 370.024,419.948 371.43,419.374C373.152,418.672 374.152,418.6 374.494,419.153C375.11,420.15 367.01,428.531 365.43,428.531C364.814,428.531 363.109,427.789 361.642,426.882L361.642,426.882ZM396.726,423.42C392.201,421.027 391.35,419.329 393.707,417.395C394.753,416.536 396.777,415.861 398.304,415.861C401.01,415.861 407.573,418.374 408.412,419.732C408.653,420.121 407.435,421.717 405.707,423.279C402.348,426.313 402.203,426.316 396.726,423.42L396.726,423.42ZM260.661,422.305C259.423,421.097 257.864,414.651 258.36,412.795C258.794,411.174 259.788,410.515 263.441,409.431C265.939,408.689 269.114,408.14 270.496,408.21C272.64,408.319 273.129,408.744 273.832,411.109C274.285,412.634 275.08,414.625 275.597,415.535C277.105,418.183 276.043,420.297 272.702,421.298C271.054,421.792 268.788,422.196 267.666,422.196C266.545,422.196 265.398,422.566 265.118,423.02C264.628,423.813 261.73,423.348 260.661,422.305ZM183.557,419.79C182.874,418.686 182.84,411.051 183.509,408.947C184.118,407.028 188.127,404.44 192.259,403.299C195.797,402.323 196.643,403.582 196.643,409.832C196.643,416.407 195.654,417.905 190.406,419.284C184.808,420.755 184.183,420.802 183.558,419.79L183.557,419.79ZM285.605,412.205C284.117,405.908 284.263,405.084 287.112,403.745C290.273,402.26 296.511,401.279 298.594,401.94C300.563,402.565 302.048,405.77 302.5,410.369L302.856,413.984L298.251,415.393C295.718,416.168 292.755,417.072 291.666,417.403C288.64,418.323 286.646,416.613 285.605,412.205ZM315.104,411.47C314.431,410.797 313.494,408.748 313.021,406.917C312.549,405.085 311.863,402.62 311.497,401.439C310.556,398.404 311.678,397.806 318.803,397.54C326.638,397.249 327.153,397.713 330.02,407.63C330.44,409.084 329.966,409.459 326.327,410.556C318.3,412.974 316.735,413.102 315.104,411.47ZM207.402,411.307C206.157,407.315 208.915,395.236 210.805,396.404C211.154,396.62 212.743,396.437 214.337,395.996C218.231,394.921 219.492,395.793 221.246,400.775C222.554,404.489 222.585,405.117 221.535,406.719C220.89,407.705 220.586,409.095 220.86,409.81C221.267,410.871 220.799,411.12 218.305,411.165C216.625,411.194 214.538,411.527 213.667,411.901C210.898,413.091 207.869,412.804 207.402,411.308L207.402,411.307ZM341.552,406.358C341.241,405.705 340.402,404.046 339.687,402.673C338.971,401.299 338.386,399.267 338.386,398.157C338.386,396.499 338.916,395.991 341.356,395.314C345.392,394.193 350.489,394.268 351.984,395.47C352.661,396.014 353.831,398.408 354.583,400.789C355.939,405.078 355.936,405.131 354.228,406.514C351.982,408.332 342.436,408.215 341.552,406.358L341.552,406.358ZM367.488,404.464C366.725,403.886 366.102,402.721 366.102,401.876C366.102,401.031 365.783,400.002 365.393,399.588C364.06,398.172 363.506,393.695 364.653,393.609C377.849,392.613 378.81,392.889 380.2,398.089C381.472,402.845 380.796,403.669 374.805,404.661C368.875,405.643 369.047,405.648 367.488,404.464L367.488,404.464ZM164.174,404.149C164.174,401.96 166.952,393.539 168.604,390.719C171.941,385.024 173.46,386.466 172.982,394.876C172.664,400.468 171.499,402.897 168.701,403.795C165.459,404.836 164.174,404.937 164.174,404.149L164.174,404.149ZM390.675,399.832C389.087,396.991 390.343,394.807 393.431,395.039C397.687,395.358 400.747,400.288 397.517,401.623C394.572,402.84 391.975,402.161 390.675,399.832ZM255.887,398.638C254.794,397.357 252.384,388.322 252.991,387.786C253.139,387.655 255.343,386.572 257.888,385.378C261.628,383.625 262.988,383.343 264.974,383.913C267.285,384.576 267.486,384.946 268.358,390.143C269.338,395.989 268.888,397.648 266.319,397.648C265.551,397.648 263.902,398.18 262.655,398.831C259.649,400.398 257.332,400.332 255.887,398.638L255.887,398.638ZM184.102,388.827C184.61,382.468 184.934,381.291 186.508,380.097C189.74,377.645 194.244,375.929 195.128,376.813C196.394,378.079 196.81,389.989 195.643,391.575C194.714,392.839 184.848,396.92 183.941,396.415C183.707,396.285 183.779,392.87 184.102,388.827L184.102,388.827ZM279.693,392.77C279.323,392.186 279.015,390.574 279.008,389.187C279.002,387.8 278.639,385.726 278.203,384.579C276.373,379.766 279.515,377.176 287.616,376.817C290.796,376.676 291.216,376.887 292.595,379.319C293.537,380.981 294.164,383.785 294.269,386.811L294.437,391.646L291.077,392.229C289.229,392.55 287.17,393.118 286.502,393.492C284.755,394.47 280.483,394.017 279.693,392.77L279.693,392.77ZM306.084,386.532C305.53,385.644 304.746,382.348 304.343,379.207C303.453,372.283 303.753,371.933 311.264,371.128C316.355,370.583 316.613,370.641 318.24,372.681C319.977,374.86 321.817,382.599 321.177,385.043C320.789,386.526 315.856,387.887 310.267,388.052C307.866,388.123 306.847,387.752 306.084,386.532ZM207.055,379.474C207.207,375.575 207.702,372.015 208.156,371.562C208.609,371.109 210.747,370.394 212.907,369.974C216.336,369.307 216.993,369.397 218.092,370.689C219.621,372.487 219.619,382.657 218.089,384.5C217.185,385.59 214.858,386.085 209.034,386.429L206.778,386.562L207.055,379.474ZM333.156,383.592C332.92,382.83 332.41,381.608 332.021,380.876C331.632,380.144 331.081,377.259 330.794,374.465C330.184,368.507 330.413,368.298 337.982,367.916C343.128,367.657 344.721,368.396 344.721,371.041C344.721,371.98 345.244,373.494 345.884,374.407C347.624,376.892 348.27,382.092 346.971,383.17C345.85,384.101 342.649,384.639 336.976,384.851C334.368,384.949 333.486,384.658 333.156,383.592ZM386.885,381.468C385.964,380.409 384.833,378.182 384.371,376.519C383.3,372.662 383.312,372.299 384.513,372.348C385.964,372.407 392.292,382.435 391.169,382.895C389.355,383.637 388.532,383.363 386.885,381.468L386.885,381.468ZM360.425,382.524C359.225,381.888 358.3,379.329 357.735,375.08C357.619,374.208 357.271,371.981 356.96,370.13L356.397,366.765L360.168,366.765C365.005,366.765 369.797,368.203 370.414,369.84C370.679,370.544 371.582,372.367 372.42,373.892C374.134,377.007 374.471,381.043 373.13,382.384C372.082,383.432 362.341,383.54 360.425,382.524L360.425,382.524ZM248.538,376.299C247.56,375.219 247.292,374.113 247.657,372.66C247.945,371.512 247.847,370.161 247.438,369.659C247.029,369.156 246.926,367.349 247.208,365.643C247.641,363.029 248.258,362.243 251.128,360.646C254.856,358.572 259.077,358.469 259.986,360.43C260.289,361.083 260.918,362.367 261.385,363.283C261.852,364.199 262.466,366.515 262.75,368.43L263.266,371.912L257.471,374.747C250.398,378.207 250.282,378.227 248.537,376.299L248.538,376.299ZM172.712,375.039C172.173,374.5 175.07,366.665 176.212,365.577C176.787,365.028 176.887,365.515 176.537,367.161C176.259,368.467 175.9,370.249 175.739,371.12C175.08,374.696 173.899,376.226 172.712,375.039L172.712,375.039ZM272.609,367.557C271.358,365.119 270.002,354.854 270.822,354.033C272.186,352.67 282.352,352.209 283.971,353.437C284.749,354.027 285.915,356.79 286.569,359.593C288.02,365.814 287.583,366.454 280.875,367.935C275.204,369.187 273.403,369.105 272.609,367.557L272.609,367.557ZM186.282,368.151C186.049,364.598 186.587,357.502 187.171,356.409C187.555,355.691 189.042,354.667 190.474,354.133C191.906,353.599 194.023,352.66 195.179,352.045C196.335,351.43 197.63,350.927 198.057,350.927C199.402,350.927 199.641,353.758 198.561,356.9C197.988,358.566 197.681,360.19 197.878,360.509C198.922,362.198 196.395,365.312 192.504,367.132C187.771,369.345 186.375,369.573 186.282,368.151ZM298.977,361.731C298.44,361.4 298.001,360.284 298.001,359.252C298.001,358.22 297.51,356.884 296.909,356.284C295.349,354.723 294.586,350.493 295.544,348.704C296.148,347.574 297.587,347.04 301.095,346.643C306.28,346.057 308.741,346.954 309.585,349.738C309.85,350.61 310.52,351.858 311.074,352.511C311.629,353.164 312.321,355.159 312.613,356.944L313.145,360.188L307.75,361.344C301.912,362.596 300.478,362.659 298.977,361.731L298.977,361.731ZM210.129,357.46C210.141,355.827 210.81,352.594 211.61,350.276C212.98,346.31 213.381,345.899 218.378,343.339C221.3,341.842 224.057,340.844 224.505,341.121C225.41,341.68 224.787,347.016 223.563,349.18C223.142,349.923 222.507,351.761 222.152,353.264C221.638,355.434 220.698,356.447 217.585,358.187C215.43,359.392 212.864,360.389 211.885,360.404C210.344,360.426 210.106,360.027 210.129,357.46ZM324.627,357.163C323.117,356.475 322.493,355.348 321.886,352.214C321.454,349.982 320.851,347.358 320.547,346.384C320.174,345.188 320.345,344.519 321.073,344.326C321.667,344.169 323.328,343.655 324.764,343.183C327.614,342.247 331.348,343.075 333.792,345.186C334.848,346.098 338.386,355.027 338.386,356.781C338.386,357.988 327.124,358.301 324.627,357.163L324.627,357.163ZM350.129,355.952C349.332,355.231 348.681,354.274 348.681,353.826C348.681,353.378 347.949,351.5 347.055,349.654C346.161,347.807 345.268,345.401 345.069,344.307C344.751,342.551 345.01,342.289 347.288,342.069C351.621,341.652 358.461,342.654 358.829,343.76C359.018,344.327 359.841,345.458 360.658,346.275C361.474,347.092 362.142,348.223 362.142,348.789C362.142,349.355 362.526,350.203 362.996,350.672C363.466,351.142 363.733,352.548 363.59,353.797C363.384,355.592 362.833,356.172 360.954,356.571C356.272,357.564 351.616,357.298 350.129,355.952L350.129,355.952ZM248.428,348.318C248.387,347.111 248.673,345.923 249.071,345.677C249.469,345.431 250.156,344.285 250.599,343.13L251.403,341.029L252.96,342.941C253.816,343.993 254.323,345.358 254.086,345.975C253.85,346.593 253.656,347.755 253.656,348.558C253.656,349.362 253.032,350.186 252.27,350.39C249.57,351.111 248.509,350.539 248.428,348.318L248.428,348.318ZM265.087,343.207C264.825,342.009 264.022,339.3 263.303,337.187C262.003,333.365 262.006,333.338 263.898,331.805C265.34,330.638 266.771,330.322 269.813,330.5C273.59,330.721 273.928,330.921 275.554,333.902C276.504,335.644 277.4,338.307 277.545,339.819C277.78,342.279 277.515,342.712 275.036,343.938C273.512,344.692 270.757,345.325 268.914,345.346C265.89,345.379 265.518,345.172 265.087,343.207ZM191.89,342.288C191.89,339.943 203.301,328.755 205.692,328.755C206.599,328.755 206.061,332.361 204.93,333.855C204.291,334.701 203.768,335.993 203.768,336.728C203.768,338.558 202.281,339.64 197.314,341.427C192.428,343.185 191.89,343.27 191.89,342.288ZM291.248,338.732C290.389,338.122 289.023,336.251 288.212,334.575C287.402,332.898 286.428,330.917 286.048,330.172C284.977,328.074 285.961,326.616 289.367,325.253C293.552,323.579 294.3,323.658 297.176,326.078C300.073,328.515 301.96,331.862 301.96,334.563C301.96,336.867 298.618,339.352 296.448,338.663C295.633,338.404 294.737,338.564 294.457,339.017C293.778,340.116 293.113,340.057 291.248,338.732L291.248,338.732ZM314.044,334.1C313.616,333.556 313.01,332.041 312.698,330.735C312.387,329.428 311.579,327.188 310.902,325.757C310.225,324.326 309.867,322.96 310.106,322.721C310.345,322.482 312.045,322.085 313.885,321.838C318.314,321.244 321.518,323.014 324.474,327.686L326.773,331.32L324.859,332.77C322.095,334.863 315.303,335.699 314.044,334.1ZM340.265,332.676C339.306,332.311 338.272,331.191 337.967,330.186C337.662,329.181 336.787,327.646 336.023,326.775C333.994,324.461 333.268,320.836 334.834,320.836C336.995,320.836 343.427,324.586 346.793,327.808C348.586,329.524 350.519,331.084 351.09,331.274C351.661,331.464 351.875,332.031 351.564,332.533C350.916,333.582 342.913,333.683 340.264,332.676L340.265,332.676ZM218.285,331.468C217.385,329.121 221.493,318.857 222.968,319.769C223.351,320.006 224.266,319.685 225,319.057C226.707,317.597 232.624,315.293 234.667,315.293C236.916,315.293 236.574,317.21 233.205,323.487C230.54,328.454 229.929,329.063 225.94,330.724C220.641,332.93 218.911,333.099 218.285,331.468ZM256.823,322.832C256.823,320.847 258.884,314.846 260.121,313.226C261.52,311.395 264.524,312.974 265.795,316.21C267.32,320.093 267.025,320.911 263.324,323.056C259.222,325.435 256.823,325.352 256.823,322.832L256.823,322.832ZM278.996,317.273C278.996,316.619 278.216,315.305 277.263,314.352C276.31,313.399 275.416,311.512 275.278,310.158C275.056,307.996 275.345,307.581 277.661,306.744C281.687,305.288 282.329,305.512 285.564,309.51C289.248,314.062 289.237,316.371 285.528,316.729C284.113,316.865 282.955,317.311 282.955,317.719C282.955,318.127 282.064,318.461 280.975,318.461C279.743,318.461 278.995,318.012 278.995,317.273L278.996,317.273ZM300.625,311.987C299.617,311.04 298.793,309.943 298.793,309.549C298.793,308.793 302.842,309.375 305.524,310.516C306.395,310.887 307.753,311.398 308.543,311.652C310.95,312.427 309.193,313.709 305.726,313.709C303.461,313.709 301.896,313.181 300.625,311.987ZM267.118,284.646C266.029,284.396 264.279,284.08 263.23,283.945C260.042,283.534 258.65,279.305 261.377,278.312C262.139,278.035 263.946,276.787 265.392,275.54C267.651,273.593 268.433,273.352 270.935,273.831C272.538,274.137 274.389,274.433 275.05,274.487C277.146,274.66 278.204,275.734 278.204,277.689C278.204,278.731 278.635,280.531 279.162,281.688C279.985,283.493 279.916,283.941 278.68,284.845C277.287,285.864 272.03,285.774 267.118,284.646L267.118,284.646ZM243.361,271.74C243.361,271.304 243.718,270.948 244.153,270.948C244.589,270.948 244.945,271.304 244.945,271.74C244.945,272.176 244.589,272.532 244.153,272.532C243.718,272.532 243.361,272.176 243.361,271.74Z" style="fill-rule:nonzero;"/>
        </g>
    </g>
</svg>
